<svg width="466" height="466" viewBox="396 -122 466 466" fill="none" xmlns="http://www.w3.org/2000/svg">
<path d="M601.322 220.769L573.643 193.091L601.322 165.412L629.001 193.091L601.322 220.769Z" fill="#EE6C45"/>
<path fill-rule="evenodd" clip-rule="evenodd" d="M629.001 193.091L656.68 165.412L684.358 193.091L656.68 220.769L629.001 193.091Z" fill="#EE6C45"/>
<path fill-rule="evenodd" clip-rule="evenodd" d="M684.358 28.2217L656.68 55.9004L629.001 28.2217L656.68 0.542969L684.358 28.2217Z" fill="#EE6C45"/>
<path fill-rule="evenodd" clip-rule="evenodd" d="M601.322 55.9004L573.643 28.2217L601.322 0.542969L629.001 28.2217L601.322 55.9004Z" fill="#EE6C45"/>
<path fill-rule="evenodd" clip-rule="evenodd" d="M656.68 165.412L629.001 137.733L656.078 110.656L629.001 83.5791L656.68 55.9004L711.435 110.656L656.68 165.412Z" fill="#EE6C45"/>
<path fill-rule="evenodd" clip-rule="evenodd" d="M546.566 110.656L601.322 55.9004L629.001 83.5791L601.924 110.656L629.001 137.733L601.322 165.412L546.566 110.656Z" fill="#EE6C45"/>
<path fill-rule="evenodd" clip-rule="evenodd" d="M491.209 110.656L573.643 193.091L545.965 220.769L435.852 110.656L545.965 0.542969L573.643 28.2217L491.209 110.656Z" fill="#009292"/>
<path fill-rule="evenodd" clip-rule="evenodd" d="M766.793 110.656L684.358 28.2217L712.037 0.542969L822.15 110.656L712.037 220.769L684.358 193.091L766.793 110.656Z" fill="#009292"/>
</svg>
